<svg width="4848" height="1180" viewBox="0 0 4848 1180" fill="none" xmlns="http://www.w3.org/2000/svg">
<path d="M4549.46 294.622C4605.72 294.622 4656.44 307.816 4701.44 334.498C4746.4 360.339 4781.82 395.845 4807.96 441.015H4807.83C4834.64 486.394 4848 537.404 4848 593.961V827.584C4848 845.021 4841.91 859.98 4829.72 872.039C4818.25 883.552 4803.38 889.057 4786.02 889.057C4768.67 889.057 4753.58 883.552 4741.4 872.291L4741.19 872.081L4740.98 871.871C4729.59 859.812 4724.09 844.853 4724.09 827.626V825.903C4698.46 845.106 4669.93 859.938 4639.88 869.687C4605.72 884.855 4568.54 892.334 4528.28 892.334C4480.07 892.334 4436.19 881.511 4396.79 859.871C4357.4 881.483 4313.56 892.292 4265.37 892.292C4225.12 892.292 4187.93 884.813 4153.77 869.645C4123.77 859.896 4095.24 845.064 4069.57 825.861V1117.68C4069.57 1151.92 4041.79 1179.7 4007.55 1179.7C3973.3 1179.7 3945.53 1151.92 3945.53 1117.68V593.961C3945.53 537.446 3958.89 486.394 3985.7 441.015C4011.79 395.845 4047.21 360.339 4092.21 334.498C4137.22 307.858 4187.93 294.622 4244.2 294.622C4300.3 294.622 4351.25 307.741 4396.83 334.267C4442.4 307.782 4493.36 294.622 4549.46 294.622ZM62.7334 0C96.9783 0 124.711 27.8586 124.711 62.1875V351.19C126.476 349.972 128.24 348.754 130.047 347.577H130.089C135.425 343.964 140.93 340.56 146.603 337.282C189.083 312.113 236.648 298.92 289.171 297.575C292.238 297.407 295.348 297.407 298.457 297.407C301.987 297.407 305.474 297.449 308.92 297.575C361.485 298.92 409.05 312.113 451.488 337.282C460.186 342.324 468.59 347.703 476.615 353.501C481.447 356.988 486.153 360.602 490.775 364.342C491.784 365.14 492.792 365.939 493.759 366.863C498.549 370.855 503.213 375.015 507.709 379.343H507.751C527.457 397.999 544.432 419.512 558.845 443.841V443.967C575.106 472.245 586.325 502.793 592.418 535.525L592.502 535.483C596.284 555.106 598.133 575.527 598.133 596.746V830.368C598.133 831.461 598.091 832.511 598.049 833.604C598.007 834.402 597.964 835.201 597.88 835.957C597.796 836.755 597.712 837.553 597.628 838.31C596.073 852.428 590.149 864.697 579.854 874.865C573.384 881.294 565.863 885.916 557.417 888.647C557.039 888.773 556.66 888.9 556.282 889.026C549.979 891.211 543.172 892.388 536.113 892.388H534.811C522.541 892.388 511.07 888.816 501.448 882.598C501.028 882.346 500.608 882.093 500.188 881.799C497.162 879.866 494.262 877.597 491.531 875.076L491.279 874.865L491.069 874.613C489.641 873.101 488.297 871.546 487.078 869.949C486.952 869.739 486.783 869.571 486.657 869.361C481.447 862.975 477.498 855.495 475.187 847.344C473.8 842.428 473.001 837.259 472.875 831.965C472.833 831.419 472.833 830.914 472.833 830.368V618.596C472.833 618.05 472.833 617.545 472.875 616.999V606.494C472.875 574.35 468.715 545.442 453.883 516.659C425.899 462.161 373.166 428.715 316.483 422.916C312.87 422.538 309.256 422.285 305.643 422.159C301.273 421.991 296.902 421.991 292.49 422.159C288.877 422.285 285.263 422.538 281.649 422.916C225.009 428.715 172.191 462.161 144.207 516.659C130.887 542.584 124.669 570.274 124.879 597.502L124.711 614.729V830.368C124.711 831.419 124.627 832.511 124.627 833.562V833.394C124.375 838.058 123.661 842.596 122.442 846.924V847.05C121.602 850.243 120.425 853.353 119.038 856.336C118.912 856.672 118.786 857.008 118.66 857.302C118.534 857.512 118.45 857.723 118.366 857.933C115.593 863.983 111.853 869.571 107.063 874.655L106.854 874.908L106.601 875.118C101.433 879.866 95.8024 883.606 89.626 886.337C89.2899 886.463 88.9953 886.631 88.6592 886.757C88.5332 886.841 88.3653 886.883 88.2393 886.925C80.4238 890.454 71.8094 892.43 62.7334 892.43H61.9775C55.0025 892.43 48.2793 891.253 42.0605 889.11C42.0185 889.068 41.9346 889.068 41.8506 889.068C41.4724 888.942 41.094 888.816 40.7158 888.689C32.2704 885.958 24.749 881.337 18.2783 874.908C7.98381 864.74 2.05956 852.47 0.504883 838.352C0.42086 837.595 0.335976 836.797 0.251953 835.999C0.167916 835.243 0.126003 834.444 0.0839844 833.646C-3.89411e-05 832.553 0 831.503 0 830.41V62.1875C0.000117295 27.8586 27.7746 0 61.9775 0H62.7334ZM2058.82 88.4043C2076.89 88.4043 2091.84 93.9923 2103.44 105.043C2115.04 116.136 2120.88 130.507 2120.88 147.734V302.655H2235.46C2269.71 302.655 2297.44 330.43 2297.44 364.633C2297.44 398.836 2269.71 426.609 2235.46 426.609H2120.88V674.099C2120.88 702.419 2129.07 726.369 2145.29 745.361C2161.47 764.354 2180.76 773.598 2204.24 773.598H2243.49C2258.53 773.598 2271.47 779.271 2281.94 790.447C2292.27 801.498 2297.48 815.826 2297.48 832.97C2297.48 850.113 2290.55 864.82 2276.89 875.913C2263.49 886.838 2246.01 892.342 2225.04 892.342L2225 892.384H2204.24C2165.12 892.384 2129.37 882.72 2098.06 863.602C2066.76 844.525 2041.8 818.18 2023.82 785.321C2005.87 752.505 1996.76 715.109 1996.76 674.141V426.609H1926.92C1892.68 426.609 1864.94 398.836 1864.94 364.633C1864.94 330.43 1892.68 302.655 1926.92 302.655H1996.76V147.776C1996.76 130.507 2002.64 116.136 2014.19 105.085C2025.75 94.0341 2040.75 88.4043 2058.82 88.4043ZM1587.75 294.622C1644.01 294.622 1694.73 307.816 1739.73 334.498C1784.69 360.339 1820.11 395.845 1846.25 441.015H1846.12C1872.93 486.394 1886.29 537.404 1886.29 593.961V827.584C1886.29 845.021 1880.2 859.98 1868.01 872.039C1856.54 883.552 1841.67 889.057 1824.31 889.057C1806.96 889.057 1791.88 883.552 1779.69 872.291L1779.27 871.871C1767.88 859.812 1762.38 844.853 1762.38 827.626V825.903C1736.75 845.106 1708.22 859.938 1678.17 869.687C1644.01 884.855 1606.83 892.334 1566.57 892.334C1513.76 892.334 1466.15 879.35 1423.92 853.383C1381.82 826.743 1348.46 791.111 1323.96 746.74L1323.83 746.614V746.488C1299.88 701.235 1288.03 650.56 1288.03 594.004C1288.03 537.447 1301.02 486.436 1327.15 441.141V441.015C1353.96 395.845 1389.72 360.255 1434.72 334.498C1480.39 307.858 1531.49 294.622 1587.75 294.622ZM3602.36 294.622C3658.63 294.622 3709.34 307.816 3754.35 334.498C3799.31 360.339 3834.73 395.845 3860.86 441.015H3860.74C3887.54 486.394 3900.91 537.404 3900.91 593.961V827.584C3900.91 845.021 3894.81 859.98 3882.63 872.039C3871.16 883.552 3856.28 889.057 3838.93 889.057C3821.58 889.057 3806.49 883.552 3794.3 872.291L3793.88 871.871C3782.5 859.812 3776.99 844.853 3776.99 827.626V825.903C3751.36 845.106 3722.83 859.938 3692.79 869.687C3658.63 884.855 3621.44 892.334 3581.19 892.334C3528.37 892.334 3480.76 879.35 3438.54 853.383C3396.43 826.743 3363.07 791.112 3338.57 746.74L3338.45 746.614V746.488C3314.5 701.235 3302.65 650.56 3302.65 594.004C3302.65 537.447 3315.63 486.436 3341.77 441.141V441.015C3368.57 395.845 3404.33 360.255 3449.33 334.498C3495.01 307.858 3546.1 294.622 3602.36 294.622ZM946.045 294.031C992.517 294.031 1036.93 303.947 1076.81 322.688C1088.78 327.394 1100.17 332.898 1111.09 339.201C1154.08 363.362 1186.81 397.229 1209.08 440.592C1232.11 483.282 1243.49 532.486 1243.49 588.034L1243.54 587.992C1243.54 588.58 1243.45 589.127 1243.45 589.715C1243.45 590.261 1243.54 590.807 1243.54 591.354V592.74C1243.54 623.834 1218.32 649.045 1187.23 649.045H771.921C776.081 662.995 781.795 676.819 789.19 690.223C807.594 723.459 846.923 749.006 899.908 762.158C973.188 780.352 1059.45 770.31 1109.71 737.746C1137.69 719.594 1175.21 727.409 1193.49 755.184C1211.77 782.958 1203.91 820.186 1175.93 838.338C1126.26 870.524 1060.25 888.718 991.509 891.113C985.71 891.449 979.954 891.659 974.239 891.659C932.137 891.659 893.018 886.112 856.84 875.062C777.425 852.33 716.036 807.58 683.094 748.082C608.847 613.917 639.563 453.155 750.533 363.277C804.065 319.116 871.42 294.704 943.062 294.031H946.045ZM2989.36 292.989C2994.95 292.737 3000.96 292.695 3006.71 292.989C3052.34 294.376 3094.36 308.327 3131.3 334.462C3135.07 337.086 3138.61 339.659 3142 342.261C3142.56 342.648 3143.11 343.029 3143.65 343.405C3166.56 359.351 3222.36 405.468 3245.99 488.577C3248.87 497.91 3251.16 508.133 3253.28 521.317C3253.33 521.655 3253.38 521.994 3253.44 522.333C3254.03 525.979 3254.5 529.294 3254.84 532.134C3257 548.786 3258.11 566.192 3258.11 584.051V816.917C3258.11 818.135 3258.11 819.27 3258.02 820.488C3257.98 821.707 3257.94 822.589 3257.86 823.43L3257.65 825.782C3256.13 842.085 3250.33 856.288 3240.38 868.053C3233.86 875.784 3226.13 881.415 3217.43 884.818L3216.26 885.28C3209.88 887.588 3203.04 888.764 3195.91 888.768C3186.27 888.76 3177.25 886.661 3169.11 882.55C3168.82 882.424 3168.57 882.255 3168.31 882.129L3168.02 881.961C3161.93 878.725 3156.26 874.314 3151.17 868.768L3149.95 867.339C3145.54 861.75 3141.84 855.196 3139.11 848.137L3138.78 847.296C3137.39 843.43 3136.25 839.397 3135.46 835.405C3134.28 829.481 3133.69 823.262 3133.69 816.959L3133.78 815.236C3133.69 813.85 3133.65 812.295 3133.69 810.572L3133.06 591.656V591.362C3133.06 590.9 3133.14 590.396 3133.14 589.934C3133.27 585.312 3133.27 580.815 3133.1 576.235C3130.83 517.662 3102.47 464.761 3059.15 438.205C3044.02 428.919 3027.97 423.204 3011.33 421.313C3008.52 420.977 3005.74 420.726 3003.06 420.6C2999.69 420.432 2996.29 420.432 2993.01 420.6C2990.28 420.726 2987.55 420.935 2984.78 421.271C2939.27 426.818 2899.48 459.425 2878.39 508.418C2867.17 534.469 2862.04 582.118 2862.04 615.354V618.296L2861.92 618.509V826.264C2861.92 861.223 2834.31 889.586 2800.28 889.586H2799.85C2765.82 889.586 2738.21 861.223 2738.21 826.264V603.348C2737.15 571.432 2732 531.5 2722.08 508.46C2700.99 459.425 2661.19 426.86 2615.73 421.271C2612.96 420.935 2610.18 420.684 2607.5 420.6C2604.18 420.432 2600.77 420.432 2597.45 420.6C2594.72 420.726 2591.99 420.935 2589.22 421.271C2572.54 423.204 2556.44 428.877 2541.32 438.163C2497.99 464.719 2469.63 517.62 2467.36 576.193C2467.2 580.815 2467.15 585.312 2467.28 589.598C2467.28 590.396 2467.28 590.858 2467.32 591.362V591.95L2466.73 810.74C2466.73 812.379 2466.73 813.892 2466.61 815.236H2466.69V816.959C2466.69 823.262 2466.1 829.481 2464.97 835.363C2464.13 839.481 2463.03 843.472 2461.65 847.338L2461.31 848.179C2458.62 855.154 2455.01 861.582 2450.51 867.339L2449.25 868.81C2444.34 874.23 2438.58 878.726 2432.45 882.003L2432.11 882.172C2431.86 882.34 2431.56 882.466 2431.31 882.592C2423.12 886.71 2414.13 888.811 2404.46 888.811C2397.32 888.811 2390.47 887.634 2384.08 885.323L2382.91 884.86C2374.21 881.499 2366.48 875.869 2359.92 868.096C2349.96 856.373 2344.17 842.128 2342.65 825.867L2342.44 823.472C2342.36 822.589 2342.32 821.623 2342.27 820.656C2342.23 819.396 2342.19 818.219 2342.19 817.001V584.135C2342.19 581.302 2342.22 578.479 2342.27 575.669V364.627C2342.27 330.352 2370.05 302.566 2404.31 302.566C2428.55 302.566 2449.53 316.463 2459.74 336.725C2468.22 331.243 2481.19 323.914 2499.42 316.285C2528.45 301.857 2560.06 294.05 2593.75 293.031C2599.13 292.779 2605.27 292.779 2611.02 293.031C2656.4 294.628 2698.34 308.579 2735.52 334.462C2742.84 339.504 2750.23 345.134 2757.42 351.227C2761.58 354.798 2765.69 358.58 2769.73 362.487C2770.65 363.328 2771.62 364.294 2772.54 365.345C2775.53 368.328 2778.47 371.396 2781.28 374.505L2784.43 378.034C2789.85 384.169 2795.11 390.682 2800.11 397.489C2805.15 390.682 2810.36 384.127 2815.78 377.992L2818.97 374.463C2821.79 371.354 2824.69 368.286 2827.71 365.303C2828.68 364.252 2829.65 363.328 2830.61 362.403C2834.56 358.58 2838.68 354.798 2842.8 351.269C2850.02 345.134 2857.42 339.461 2864.82 334.377C2901.92 308.536 2943.85 294.586 2989.36 292.989ZM3195.96 888.769H3195.88C3195.89 888.769 3195.9 888.768 3195.91 888.768C3195.93 888.768 3195.95 888.769 3195.96 888.769ZM1667 438.619C1581.41 394.584 1476.28 428.241 1432.2 513.874C1388.12 599.508 1421.95 704.512 1507.54 748.547C1593.25 792.456 1698.38 758.8 1742.46 673.166C1786.54 587.659 1752.71 482.654 1667 438.619ZM3681.65 438.619C3596.06 394.584 3490.93 428.241 3446.85 513.874C3402.78 599.507 3436.6 704.511 3522.19 748.547C3607.91 792.456 3713.04 758.799 3757.12 673.166C3801.2 587.659 3767.37 482.654 3681.65 438.619ZM4628.71 438.619C4586.09 416.695 4538.63 414.031 4496.28 427.45C4499.21 431.872 4502.05 436.393 4504.79 441.015V441.099L4506.01 443.226C4531.33 487.997 4543.91 538.536 4543.91 593.961C4543.91 650.266 4532.06 701.15 4508.11 746.446V746.572L4507.99 746.698C4505.35 751.481 4502.6 756.161 4499.75 760.74C4578.55 783.94 4665.21 748.859 4704.17 673.166C4748.25 587.659 4714.42 482.654 4628.71 438.619ZM4297.37 427.459C4255.01 414.043 4207.56 416.699 4164.95 438.619C4079.23 482.612 4045.41 587.659 4089.48 673.166C4128.44 748.815 4215.09 783.925 4293.88 760.746C4291.04 756.179 4288.3 751.51 4285.67 746.74L4285.54 746.614V746.488C4261.59 701.235 4249.74 650.561 4249.74 594.004C4249.74 537.447 4262.73 486.436 4288.86 441.141V441.015C4291.6 436.396 4294.44 431.877 4297.37 427.459ZM4396.83 508.438C4395.83 510.227 4394.85 512.038 4393.91 513.874C4366.14 567.824 4369.29 629.46 4396.83 678.697C4424.36 629.46 4427.52 567.824 4399.75 513.874C4398.8 512.038 4397.83 510.227 4396.83 508.438ZM944.154 414.204C911.716 414.54 880.874 422.776 853.94 437.902C852.092 439.247 850.242 440.549 848.226 441.726C840.536 446.222 833.393 451.222 826.712 456.685C825.746 457.483 824.78 458.324 823.813 459.164C823.141 459.752 822.426 460.382 821.754 460.971C819.653 462.861 817.594 464.794 815.577 466.811C795.955 486.265 781.668 509.628 773.265 535.091H1113.74C1105.63 507.401 1090.88 482.526 1070.33 462.525C1037.85 430.928 993.19 413.784 944.154 414.204ZM4153.23 28.5713C4222.26 28.5714 4278.23 84.538 4278.23 153.576C4278.23 222.614 4222.26 278.581 4153.23 278.581C4084.19 278.581 4028.22 222.614 4028.22 153.576C4028.22 84.5379 4084.19 28.5713 4153.23 28.5713ZM4641.27 28.5713C4710.31 28.5713 4766.27 84.5379 4766.27 153.576C4766.27 222.614 4710.31 278.581 4641.27 278.581C4572.23 278.581 4516.26 222.614 4516.26 153.576C4516.26 84.5381 4572.23 28.5715 4641.27 28.5713Z" fill="url(#paint0_linear_514_1079)"/>
<defs>
<linearGradient id="paint0_linear_514_1079" x1="0" y1="589.849" x2="4848" y2="589.849" gradientUnits="userSpaceOnUse">
<stop stop-color="#FF8A00"/>
<stop offset="1" stop-color="#FFC62A"/>
</linearGradient>
</defs>
</svg>
