<svg width="894" height="1141" viewBox="0 0 894 1141" fill="none" xmlns="http://www.w3.org/2000/svg">
<path d="M598.262 263.553C653.996 263.553 704.236 276.623 748.815 303.054C793.353 328.652 828.442 363.825 854.332 408.571H854.208C880.764 453.525 894 504.056 894 560.082V791.512C894 808.786 887.964 823.604 875.894 835.55C864.53 846.955 849.795 852.408 832.604 852.408C815.414 852.408 800.471 846.955 788.4 835.8L788.191 835.592L787.983 835.384C776.703 823.438 771.251 808.619 771.251 791.554V789.847C745.86 808.869 717.597 823.562 687.836 833.219C653.996 848.245 617.159 855.654 577.283 855.654C529.519 855.654 486.058 844.933 447.023 823.496C408.009 844.905 364.574 855.613 316.842 855.613C276.966 855.613 240.129 848.204 206.289 833.178C176.57 823.521 148.306 808.828 122.874 789.806V1078.88C122.874 1112.81 95.3609 1140.32 61.4375 1140.32C27.5139 1140.32 0 1112.81 0 1078.88V560.082C4.05116e-05 504.098 13.2369 453.525 39.793 408.571C65.6415 363.825 100.73 328.652 145.31 303.054C189.889 276.664 240.129 263.553 295.863 263.553C351.436 263.553 401.918 276.548 447.062 302.825C492.207 276.589 542.689 263.553 598.262 263.553ZM676.765 406.198C634.55 384.48 587.539 381.841 545.582 395.135C548.486 399.515 551.298 403.993 554.016 408.571V408.654L555.22 410.762C580.305 455.113 592.768 505.177 592.768 560.082C592.768 615.858 581.029 666.265 557.304 711.136V711.261L557.179 711.386C554.563 716.124 551.843 720.761 549.023 725.297C627.077 748.279 712.926 713.527 751.521 638.544C795.185 553.839 761.678 449.82 676.765 406.198ZM348.536 395.143C306.58 381.852 259.567 384.484 217.36 406.198C132.448 449.779 98.94 553.839 142.604 638.544C181.195 713.482 267.03 748.263 345.077 725.302C342.266 720.777 339.555 716.153 336.946 711.428L336.821 711.303V711.178C313.096 666.349 301.357 616.15 301.357 560.124C301.357 504.098 314.219 453.567 340.109 408.696V408.571C342.825 403.996 345.635 399.52 348.536 395.143ZM447.062 475.361C446.071 477.133 445.106 478.928 444.17 480.747C416.662 534.19 419.785 595.248 447.062 644.023C474.34 595.249 477.464 534.19 449.956 480.747C449.02 478.928 448.054 477.133 447.062 475.361ZM205.747 0C274.137 7.83425e-05 329.578 55.4419 329.578 123.832C329.578 192.222 274.137 247.663 205.747 247.663C137.357 247.663 81.9152 192.222 81.915 123.832C81.915 55.4418 137.357 0 205.747 0ZM689.21 0C757.6 0 813.041 55.4418 813.041 123.832C813.041 192.222 757.6 247.663 689.21 247.663C620.82 247.663 565.379 192.222 565.379 123.832C565.379 55.4418 620.82 8.24873e-06 689.21 0Z" fill="url(#paint0_linear_514_1755)"/>
<defs>
<linearGradient id="paint0_linear_514_1755" x1="5.28132e-06" y1="570" x2="894" y2="570" gradientUnits="userSpaceOnUse">
<stop stop-color="#FF8A00"/>
<stop offset="1" stop-color="#FFC62A"/>
</linearGradient>
</defs>
</svg>
